# xmcd
#
# Track frame offsets: 
#        150
#        21658
#        44981
#        77066
#        108145
#        126409
#        150674
#        192084
#        214239
#        250349
#
# Disc length: 3909 seconds
#
# Revision: 0
# Processed by: cddbd v1.5.2PL0 Copyright (c) Steve Scherf et al.
# Submitted via: ExactAudioCopy v0.95b4
#
DISCID=900f430a
DTITLE=Various Artist - Solid Sounds 2010.1 [CD3)
DYEAR=2010
DGENRE=Blues
TTITLE0=Crookers - We Love Animals
TTITLE1=Boemklatsch feat. Faberyayo - Spikkeltjes (The Subs Remix)
TTITLE2=Sébastien Léger - The Rhythm (Format B Remix)
TTITLE3=Mowgli - Tamiflu
TTITLE4=Phonat - Set Me Free (Louis La Roche Reconstruction)
TTITLE5=Boris Dlugosch - Bangkok (Original)
TTITLE6=Abe Duque feat. Blake Baxter - What Happened? (Marc Romboy's R
TTITLE6=etro Re-Rub)
TTITLE7=Riva Starr feat. Nôze - I Was Drunk
TTITLE8=Anthony Collins - Another Lonely Night
TTITLE9=SiS - Barbarossa
EXTD=
EXTT0=
EXTT1=
EXTT2=
EXTT3=
EXTT4=
EXTT5=
EXTT6=
EXTT7=
EXTT8=
EXTT9=
PLAYORDER=
